<?xml version="1.0" encoding="us-ascii" standalone="no"?><svg xmlns="http://www.w3.org/2000/svg" xmlns:xlink="http://www.w3.org/1999/xlink" contentStyleType="text/css" height="177px" preserveAspectRatio="none" style="width:648px;height:177px;background:#FFFFFF;" version="1.1" viewBox="0 0 648 177" width="648px" zoomAndPan="magnify"><defs/><g><!--cluster transformer--><g id="cluster_transformer"><path d="M8.5,6 L108.5,6 A3.75,3.75 0 0 1 111,8.5 L118,28.2969 L638.5,28.2969 A2.5,2.5 0 0 1 641,30.7969 L641,167.5 A2.5,2.5 0 0 1 638.5,170 L8.5,170 A2.5,2.5 0 0 1 6,167.5 L6,8.5 A2.5,2.5 0 0 1 8.5,6 " fill="none" style="stroke:#000000;stroke-width:1.5;"/><line style="stroke:#000000;stroke-width:1.5;" x1="6" x2="118" y1="28.2969" y2="28.2969"/><text fill="#000000" font-family="sans-serif" font-size="14" font-weight="bold" lengthAdjust="spacing" textLength="99" x="10" y="20.9951">transformer</text></g><!--class TransformationManager--><g id="elem_TransformationManager"><rect codeLine="2" fill="#F1F1F1" height="113.1875" id="TransformationManager" rx="2.5" ry="2.5" style="stroke:#181818;stroke-width:0.5;" width="316" x="309" y="41"/><ellipse cx="376.25" cy="57" fill="#B4A7E5" rx="11" ry="11" style="stroke:#181818;stroke-width:1.0;"/><path d="M377.2031,53.7813 L378.9219,53.7813 C379.3125,53.7813 379.5,53.75 379.625,53.6719 C379.8906,53.5156 380.0313,53.2344 380.0313,52.9375 C380.0313,52.6719 379.9219,52.4063 379.6875,52.2344 C379.5156,52.125 379.375,52.0938 378.9219,52.0938 L373.7813,52.0938 C373.3438,52.0938 373.2188,52.1094 373.0625,52.2031 C372.8125,52.3594 372.6563,52.6563 372.6563,52.9375 C372.6563,53.2188 372.7969,53.4688 373.0156,53.6406 C373.1719,53.75 373.3594,53.7813 373.7813,53.7813 L375.5,53.7813 L375.5,60.2969 L373.7813,60.2969 C373.3438,60.2969 373.2188,60.3125 373.0625,60.4219 C372.8125,60.5781 372.6563,60.8594 372.6563,61.1563 C372.6563,61.4063 372.7969,61.6719 373.0156,61.8281 C373.1719,61.9531 373.375,62 373.7813,62 L378.9219,62 C379.6719,62 380.0313,61.7188 380.0313,61.1563 C380.0313,60.875 379.9219,60.625 379.6875,60.4531 C379.5156,60.3281 379.375,60.2969 378.9219,60.2969 L377.2031,60.2969 L377.2031,53.7813 Z " fill="#000000"/><text fill="#000000" font-family="sans-serif" font-size="14" font-style="italic" lengthAdjust="spacing" textLength="173" x="396.75" y="61.8467">TransformationManager</text><line style="stroke:#181818;stroke-width:0.5;" x1="310" x2="624" y1="73" y2="73"/><line style="stroke:#181818;stroke-width:0.5;" x1="310" x2="624" y1="81" y2="81"/><ellipse cx="320" cy="94.6484" fill="#84BE84" rx="3" ry="3" style="stroke:#038048;stroke-width:1.0;"/><text fill="#000000" font-family="sans-serif" font-size="14" lengthAdjust="spacing" textLength="116" x="329" y="97.9951">Provider() string</text><ellipse cx="320" cy="110.9453" fill="#84BE84" rx="3" ry="3" style="stroke:#038048;stroke-width:1.0;"/><text fill="#000000" font-family="sans-serif" font-size="14" lengthAdjust="spacing" textLength="290" x="329" y="114.292">TransformForType() (Transformer, error)</text><ellipse cx="320" cy="127.2422" fill="#84BE84" rx="3" ry="3" style="stroke:#038048;stroke-width:1.0;"/><text fill="#000000" font-family="sans-serif" font-size="14" lengthAdjust="spacing" textLength="249" x="329" y="130.5889">RegisterTransformer(Transformer)</text><ellipse cx="320" cy="143.5391" fill="#84BE84" rx="3" ry="3" style="stroke:#038048;stroke-width:1.0;"/><text fill="#000000" font-family="sans-serif" font-size="14" lengthAdjust="spacing" textLength="34" x="329" y="146.8857">Init()</text></g><!--class Transformer--><g id="elem_Transformer"><rect codeLine="8" fill="#F1F1F1" height="80.5938" id="Transformer" rx="2.5" ry="2.5" style="stroke:#181818;stroke-width:0.5;" width="252" x="22" y="57"/><ellipse cx="99.25" cy="73" fill="#B4A7E5" rx="11" ry="11" style="stroke:#181818;stroke-width:1.0;"/><path d="M100.2031,69.7813 L101.9219,69.7813 C102.3125,69.7813 102.5,69.75 102.625,69.6719 C102.8906,69.5156 103.0313,69.2344 103.0313,68.9375 C103.0313,68.6719 102.9219,68.4063 102.6875,68.2344 C102.5156,68.125 102.375,68.0938 101.9219,68.0938 L96.7813,68.0938 C96.3438,68.0938 96.2188,68.1094 96.0625,68.2031 C95.8125,68.3594 95.6563,68.6563 95.6563,68.9375 C95.6563,69.2188 95.7969,69.4688 96.0156,69.6406 C96.1719,69.75 96.3594,69.7813 96.7813,69.7813 L98.5,69.7813 L98.5,76.2969 L96.7813,76.2969 C96.3438,76.2969 96.2188,76.3125 96.0625,76.4219 C95.8125,76.5781 95.6563,76.8594 95.6563,77.1563 C95.6563,77.4063 95.7969,77.6719 96.0156,77.8281 C96.1719,77.9531 96.375,78 96.7813,78 L101.9219,78 C102.6719,78 103.0313,77.7188 103.0313,77.1563 C103.0313,76.875 102.9219,76.625 102.6875,76.4531 C102.5156,76.3281 102.375,76.2969 101.9219,76.2969 L100.2031,76.2969 L100.2031,69.7813 Z " fill="#000000"/><text fill="#000000" font-family="sans-serif" font-size="14" font-style="italic" lengthAdjust="spacing" textLength="89" x="119.75" y="77.8467">Transformer</text><line style="stroke:#181818;stroke-width:0.5;" x1="23" x2="273" y1="89" y2="89"/><line style="stroke:#181818;stroke-width:0.5;" x1="23" x2="273" y1="97" y2="97"/><ellipse cx="33" cy="110.6484" fill="#84BE84" rx="3" ry="3" style="stroke:#038048;stroke-width:1.0;"/><text fill="#000000" font-family="sans-serif" font-size="14" lengthAdjust="spacing" textLength="92" x="42" y="113.9951">Type() string</text><ellipse cx="33" cy="126.9453" fill="#84BE84" rx="3" ry="3" style="stroke:#038048;stroke-width:1.0;"/><text fill="#000000" font-family="sans-serif" font-size="14" lengthAdjust="spacing" textLength="226" x="42" y="130.292">Transform() (interface{}, error)</text></g><!--SRC=[TOx12i8m44Jl_OezjkXt21u4aVp0KhTX4JTb4WGf-NTJj3KAdUFEpCuRkR-n5qfWYqF0NK1JGqLgIJ1mB-GMZvC6Ex6LmfAQjQCpmaElWhQZcA3cAszj7mBSSvIIQTrtRKy217HLuo9UOnclKdMZZXvDK_i-v2tgFzOFmpRd3BY-cV8FO6xo2m00]--></g></svg>